<?xml version="1.0" standalone="no"?>
 <!DOCTYPE svg PUBLIC "-//W3C//DTD SVG 1.1//EN" 
 "http://www.w3.org/Graphics/SVG/1.1/DTD/svg11.dtd"> 
<svg
  xmlns:svg="http://www.w3.org/2000/svg"
  xmlns="http://www.w3.org/2000/svg"
  xmlns:xlink="http://www.w3.org/1999/xlink"
  xmlns:inkscape="http://www.inkscape.org/namespaces/inkscape"
  version="1.1"
  width="419.9890mm" height="297.0022mm" viewBox="0.0000 0.0000 419.9890 297.0022">
<title>SVG Image created as F24-keeb-F_Courtyard.svg date 2026-08-17T20:03:41 </title>
  <desc>Image generated by PCBNEW </desc>
<g style="fill:#000000; fill-opacity:1.0000;stroke:#000000; stroke-opacity:1.0000;
stroke-linecap:round; stroke-linejoin:round;"
 transform="translate(0 0) scale(1 1)">
</g>
<g style="fill:none; 
stroke:#000000; stroke-width:0.0500; stroke-opacity:1; 
stroke-linecap:round; stroke-linejoin:round;">
<path d="M136.1394 71.8319
L136.1394 86.3319
" />
<path d="M136.1394 86.3319
L150.6394 86.3319
" />
<path d="M150.6394 71.8319
L136.1394 71.8319
" />
<path d="M150.6394 86.3319
L150.6394 71.8319
" />
<path d="M88.5144 90.8819
L88.5144 105.3819
" />
<path d="M88.5144 105.3819
L103.0144 105.3819
" />
<path d="M103.0144 90.8819
L88.5144 90.8819
" />
<path d="M103.0144 105.3819
L103.0144 90.8819
" />
<path d="M212.3394 71.8319
L212.3394 86.3319
" />
<path d="M212.3394 86.3319
L226.8394 86.3319
" />
<path d="M226.8394 71.8319
L212.3394 71.8319
" />
<path d="M226.8394 86.3319
L226.8394 71.8319
" />
<path d="M93.2769 109.9319
L93.2769 124.4319
" />
<path d="M93.2769 124.4319
L107.7769 124.4319
" />
<path d="M107.7769 109.9319
L93.2769 109.9319
" />
<path d="M107.7769 124.4319
L107.7769 109.9319
" />
<path d="M117.0894 24.2069
L117.0894 38.7069
" />
<path d="M117.0894 38.7069
L131.5894 38.7069
" />
<path d="M131.5894 24.2069
L117.0894 24.2069
" />
<path d="M131.5894 38.7069
L131.5894 24.2069
" />
<path d="M272.1881 128.9819
L272.1881 143.4819
" />
<path d="M272.1881 143.4819
L286.6881 143.4819
" />
<path d="M286.6881 128.9819
L272.1881 128.9819
" />
<path d="M286.6881 143.4819
L286.6881 128.9819
" />
<path d="M332.0194 71.8944
L332.0194 86.3944
" />
<path d="M332.0194 86.3944
L346.5194 86.3944
" />
<path d="M346.5194 71.8944
L332.0194 71.8944
" />
<path d="M346.5194 86.3944
L346.5194 71.8944
" />
<path d="M269.4894 24.2069
L269.4894 38.7069
" />
<path d="M269.4894 38.7069
L283.9894 38.7069
" />
<path d="M283.9894 24.2069
L269.4894 24.2069
" />
<path d="M283.9894 38.7069
L283.9894 24.2069
" />
<path d="M164.7144 24.2069
L164.7144 38.7069
" />
<path d="M164.7144 38.7069
L179.2144 38.7069
" />
<path d="M179.2144 24.2069
L164.7144 24.2069
" />
<path d="M179.2144 38.7069
L179.2144 24.2069
" />
<path style="fill:none; 
stroke:#000000; stroke-width:0.0500; stroke-opacity:1; 
stroke-linecap:round; stroke-linejoin:round;fill:none"
d="M 406.7556,14.6425
415.7556,14.6425
415.7556,16.1925
422.7956,16.1925
422.7956,68.4925
399.7156,68.4925
399.7156,16.1925
406.7556,16.1925
Z" /> 
<path d="M284.0944 90.8819
L284.0944 105.3819
" />
<path d="M284.0944 105.3819
L298.5944 105.3819
" />
<path d="M298.5944 90.8819
L284.0944 90.8819
" />
<path d="M298.5944 105.3819
L298.5944 90.8819
" />
<path style="fill:none; 
stroke:#000000; stroke-width:0.0500; stroke-opacity:1; 
stroke-linecap:round; stroke-linejoin:round;fill:none"
d="M 397.1656,27.1125
399.0656,27.1125
399.0656,30.4725
397.1656,30.4725
Z" /> 
<path d="M98.0394 24.2069
L98.0394 38.7069
" />
<path d="M98.0394 38.7069
L112.5394 38.7069
" />
<path d="M112.5394 24.2069
L98.0394 24.2069
" />
<path d="M112.5394 38.7069
L112.5394 24.2069
" />
<path d="M131.3769 109.9319
L131.3769 124.4319
" />
<path d="M131.3769 124.4319
L145.8769 124.4319
" />
<path d="M145.8769 109.9319
L131.3769 109.9319
" />
<path d="M145.8769 124.4319
L145.8769 109.9319
" />
<path d="M102.8019 128.9819
L102.8019 143.4819
" />
<path d="M102.8019 143.4819
L117.3019 143.4819
" />
<path d="M117.3019 128.9819
L102.8019 128.9819
" />
<path d="M117.3019 143.4819
L117.3019 128.9819
" />
<path d="M218.2925 148.0319
L218.2925 162.5319
" />
<path d="M218.2925 162.5319
L232.7925 162.5319
" />
<path d="M232.7925 148.0319
L218.2925 148.0319
" />
<path d="M232.7925 162.5319
L232.7925 148.0319
" />
<path d="M145.6644 24.2069
L145.6644 38.7069
" />
<path d="M145.6644 38.7069
L160.1644 38.7069
" />
<path d="M160.1644 24.2069
L145.6644 24.2069
" />
<path d="M160.1644 38.7069
L160.1644 24.2069
" />
<path d="M351.0694 43.3194
L351.0694 57.8194
" />
<path d="M351.0694 57.8194
L365.5694 57.8194
" />
<path d="M365.5694 43.3194
L351.0694 43.3194
" />
<path d="M365.5694 57.8194
L365.5694 43.3194
" />
<path d="M332.0194 148.0944
L332.0194 162.5944
" />
<path d="M332.0194 162.5944
L346.5194 162.5944
" />
<path d="M346.5194 148.0944
L332.0194 148.0944
" />
<path d="M346.5194 162.5944
L346.5194 148.0944
" />
<path d="M183.7644 43.2569
L183.7644 57.7569
" />
<path d="M183.7644 57.7569
L198.2644 57.7569
" />
<path d="M198.2644 43.2569
L183.7644 43.2569
" />
<path d="M198.2644 57.7569
L198.2644 43.2569
" />
<path d="M117.0894 43.2569
L117.0894 57.7569
" />
<path d="M117.0894 57.7569
L131.5894 57.7569
" />
<path d="M131.5894 43.2569
L117.0894 43.2569
" />
<path d="M131.5894 57.7569
L131.5894 43.2569
" />
<path d="M288.5394 24.2069
L288.5394 38.7069
" />
<path d="M288.5394 38.7069
L303.0394 38.7069
" />
<path d="M303.0394 24.2069
L288.5394 24.2069
" />
<path d="M303.0394 38.7069
L303.0394 24.2069
" />
<path d="M351.0694 71.8944
L351.0694 86.3944
" />
<path d="M351.0694 86.3944
L365.5694 86.3944
" />
<path d="M365.5694 71.8944
L351.0694 71.8944
" />
<path d="M365.5694 86.3944
L365.5694 71.8944
" />
<path d="M140.9019 128.9819
L140.9019 143.4819
" />
<path d="M140.9019 143.4819
L155.4019 143.4819
" />
<path d="M155.4019 128.9819
L140.9019 128.9819
" />
<path d="M155.4019 143.4819
L155.4019 128.9819
" />
<path d="M231.3894 43.2569
L231.3894 57.7569
" />
<path d="M231.3894 57.7569
L245.8894 57.7569
" />
<path d="M245.8894 43.2569
L231.3894 43.2569
" />
<path d="M245.8894 57.7569
L245.8894 43.2569
" />
<path d="M164.7144 43.2569
L164.7144 57.7569
" />
<path d="M164.7144 57.7569
L179.2144 57.7569
" />
<path d="M179.2144 43.2569
L164.7144 43.2569
" />
<path d="M179.2144 57.7569
L179.2144 43.2569
" />
<path d="M198.0519 128.9819
L198.0519 143.4819
" />
<path d="M198.0519 143.4819
L212.5519 143.4819
" />
<path d="M212.5519 128.9819
L198.0519 128.9819
" />
<path d="M212.5519 143.4819
L212.5519 128.9819
" />
<path d="M226.6269 109.9319
L226.6269 124.4319
" />
<path d="M226.6269 124.4319
L241.1269 124.4319
" />
<path d="M241.1269 109.9319
L226.6269 109.9319
" />
<path d="M241.1269 124.4319
L241.1269 109.9319
" />
<path d="M98.0394 71.8319
L98.0394 86.3319
" />
<path d="M98.0394 86.3319
L112.5394 86.3319
" />
<path d="M112.5394 71.8319
L98.0394 71.8319
" />
<path d="M112.5394 86.3319
L112.5394 71.8319
" />
<path d="M312.9694 148.0944
L312.9694 162.5944
" />
<path d="M312.9694 162.5944
L327.4694 162.5944
" />
<path d="M327.4694 148.0944
L312.9694 148.0944
" />
<path d="M327.4694 162.5944
L327.4694 148.0944
" />
<path d="M64.7019 128.9819
L64.7019 143.4819
" />
<path d="M64.7019 143.4819
L79.2019 143.4819
" />
<path d="M79.2019 128.9819
L64.7019 128.9819
" />
<path d="M79.2019 143.4819
L79.2019 128.9819
" />
<path style="fill:none; 
stroke:#000000; stroke-width:0.0500; stroke-opacity:1; 
stroke-linecap:round; stroke-linejoin:round;fill:none"
d="M 423.1456,22.3606
426.5456,22.3606
426.5456,24.3206
423.1456,24.3206
Z" /> 
<path d="M250.4394 43.2569
L250.4394 57.7569
" />
<path d="M250.4394 57.7569
L264.9394 57.7569
" />
<path d="M264.9394 43.2569
L250.4394 43.2569
" />
<path d="M264.9394 57.7569
L264.9394 43.2569
" />
<path d="M374.8819 148.0944
L374.8819 162.5944
" />
<path d="M374.8819 162.5944
L389.3819 162.5944
" />
<path d="M389.3819 148.0944
L374.8819 148.0944
" />
<path d="M389.3819 162.5944
L389.3819 148.0944
" />
<path d="M107.5644 90.8819
L107.5644 105.3819
" />
<path d="M107.5644 105.3819
L122.0644 105.3819
" />
<path d="M122.0644 90.8819
L107.5644 90.8819
" />
<path d="M122.0644 105.3819
L122.0644 90.8819
" />
<path d="M263.8537 148.0319
L263.8537 162.5319
" />
<path d="M263.8537 162.5319
L278.3537 162.5319
" />
<path d="M278.3537 148.0319
L263.8537 148.0319
" />
<path d="M278.3537 162.5319
L278.3537 148.0319
" />
<path d="M145.6644 148.0319
L145.6644 162.5319
" />
<path d="M145.6644 162.5319
L160.1644 162.5319
" />
<path d="M160.1644 148.0319
L145.6644 148.0319
" />
<path d="M160.1644 162.5319
L160.1644 148.0319
" />
<path d="M351.0694 148.0944
L351.0694 162.5944
" />
<path d="M351.0694 162.5944
L365.5694 162.5944
" />
<path d="M365.5694 148.0944
L351.0694 148.0944
" />
<path d="M365.5694 162.5944
L365.5694 148.0944
" />
<path d="M332.0194 43.3194
L332.0194 57.8194
" />
<path d="M332.0194 57.8194
L346.5194 57.8194
" />
<path d="M346.5194 43.3194
L332.0194 43.3194
" />
<path d="M346.5194 57.8194
L346.5194 43.3194
" />
<path d="M49.5412 148.0319
L49.5412 162.5319
" />
<path d="M49.5412 162.5319
L64.0412 162.5319
" />
<path d="M64.0412 148.0319
L49.5412 148.0319
" />
<path d="M64.0412 162.5319
L64.0412 148.0319
" />
<path d="M374.8819 129.0444
L374.8819 143.5444
" />
<path d="M374.8819 143.5444
L389.3819 143.5444
" />
<path d="M389.3819 129.0444
L374.8819 129.0444
" />
<path d="M389.3819 143.5444
L389.3819 129.0444
" />
<path d="M183.7644 90.8819
L183.7644 105.3819
" />
<path d="M183.7644 105.3819
L198.2644 105.3819
" />
<path d="M198.2644 90.8819
L183.7644 90.8819
" />
<path d="M198.2644 105.3819
L198.2644 90.8819
" />
<path d="M231.3894 24.2069
L231.3894 38.7069
" />
<path d="M231.3894 38.7069
L245.8894 38.7069
" />
<path d="M245.8894 24.2069
L231.3894 24.2069
" />
<path d="M245.8894 38.7069
L245.8894 24.2069
" />
<path d="M69.4644 90.8819
L69.4644 105.3819
" />
<path d="M69.4644 105.3819
L83.9644 105.3819
" />
<path d="M83.9644 90.8819
L69.4644 90.8819
" />
<path d="M83.9644 105.3819
L83.9644 90.8819
" />
<path d="M250.4394 71.8319
L250.4394 86.3319
" />
<path d="M250.4394 86.3319
L264.9394 86.3319
" />
<path d="M264.9394 71.8319
L250.4394 71.8319
" />
<path d="M264.9394 86.3319
L264.9394 71.8319
" />
<path d="M22.1569 24.2069
L22.1569 38.7069
" />
<path d="M22.1569 38.7069
L36.6569 38.7069
" />
<path d="M36.6569 24.2069
L22.1569 24.2069
" />
<path d="M36.6569 38.7069
L36.6569 24.2069
" />
<path d="M164.7144 90.8819
L164.7144 105.3819
" />
<path d="M164.7144 105.3819
L179.2144 105.3819
" />
<path d="M179.2144 90.8819
L164.7144 90.8819
" />
<path d="M179.2144 105.3819
L179.2144 90.8819
" />
<path d="M174.2394 71.8319
L174.2394 86.3319
" />
<path d="M174.2394 86.3319
L188.7394 86.3319
" />
<path d="M188.7394 71.8319
L174.2394 71.8319
" />
<path d="M188.7394 86.3319
L188.7394 71.8319
" />
<path d="M276.9506 109.9319
L276.9506 124.4319
" />
<path d="M276.9506 124.4319
L291.4506 124.4319
" />
<path d="M291.4506 109.9319
L276.9506 109.9319
" />
<path d="M291.4506 124.4319
L291.4506 109.9319
" />
<path d="M145.6644 43.2569
L145.6644 57.7569
" />
<path d="M145.6644 57.7569
L160.1644 57.7569
" />
<path d="M160.1644 43.2569
L145.6644 43.2569
" />
<path d="M160.1644 57.7569
L160.1644 43.2569
" />
<path d="M74.2269 109.9319
L74.2269 124.4319
" />
<path d="M74.2269 124.4319
L88.7269 124.4319
" />
<path d="M88.7269 109.9319
L74.2269 109.9319
" />
<path d="M88.7269 124.4319
L88.7269 109.9319
" />
<path d="M351.0694 90.9444
L351.0694 105.4444
" />
<path d="M351.0694 105.4444
L365.5694 105.4444
" />
<path d="M365.5694 90.9444
L351.0694 90.9444
" />
<path d="M365.5694 105.4444
L365.5694 90.9444
" />
<path style="fill:none; 
stroke:#000000; stroke-width:0.0500; stroke-opacity:1; 
stroke-linecap:round; stroke-linejoin:round;fill:none"
d="M 422.9075,18.8494
424.8675,18.8494
424.8675,22.2494
422.9075,22.2494
Z" /> 
<path d="M374.8819 71.8944
L374.8819 86.3944
" />
<path d="M374.8819 86.3944
L389.3819 86.3944
" />
<path d="M389.3819 71.8944
L374.8819 71.8944
" />
<path d="M389.3819 86.3944
L389.3819 71.8944
" />
<path d="M126.6144 90.8819
L126.6144 105.3819
" />
<path d="M126.6144 105.3819
L141.1144 105.3819
" />
<path d="M141.1144 90.8819
L126.6144 90.8819
" />
<path d="M141.1144 105.3819
L141.1144 90.8819
" />
<path d="M59.9394 24.2069
L59.9394 38.7069
" />
<path d="M59.9394 38.7069
L74.4394 38.7069
" />
<path d="M74.4394 24.2069
L59.9394 24.2069
" />
<path d="M74.4394 38.7069
L74.4394 24.2069
" />
<path d="M78.9894 71.8319
L78.9894 86.3319
" />
<path d="M78.9894 86.3319
L93.4894 86.3319
" />
<path d="M93.4894 71.8319
L78.9894 71.8319
" />
<path d="M93.4894 86.3319
L93.4894 71.8319
" />
<path d="M59.9394 43.2569
L59.9394 57.7569
" />
<path d="M59.9394 57.7569
L74.4394 57.7569
" />
<path d="M74.4394 43.2569
L59.9394 43.2569
" />
<path d="M74.4394 57.7569
L74.4394 43.2569
" />
<path d="M22.1569 43.2569
L22.1569 57.7569
" />
<path d="M22.1569 57.7569
L36.6569 57.7569
" />
<path d="M36.6569 43.2569
L22.1569 43.2569
" />
<path d="M36.6569 57.7569
L36.6569 43.2569
" />
<path style="fill:none; 
stroke:#000000; stroke-width:0.0500; stroke-opacity:1; 
stroke-linecap:round; stroke-linejoin:round;fill:none"
d="M 423.1456,25.9325
426.5456,25.9325
426.5456,27.8925
423.1456,27.8925
Z" /> 
<path d="M145.6644 90.8819
L145.6644 105.3819
" />
<path d="M145.6644 105.3819
L160.1644 105.3819
" />
<path d="M160.1644 90.8819
L145.6644 90.8819
" />
<path d="M160.1644 105.3819
L160.1644 90.8819
" />
<path d="M25.4112 148.0319
L25.4112 162.5319
" />
<path d="M25.4112 162.5319
L39.9112 162.5319
" />
<path d="M39.9112 148.0319
L25.4112 148.0319
" />
<path d="M39.9112 162.5319
L39.9112 148.0319
" />
<path d="M259.9644 90.8819
L259.9644 105.3819
" />
<path d="M259.9644 105.3819
L274.4644 105.3819
" />
<path d="M274.4644 90.8819
L259.9644 90.8819
" />
<path d="M274.4644 105.3819
L274.4644 90.8819
" />
<path d="M183.7644 24.2069
L183.7644 38.7069
" />
<path d="M183.7644 38.7069
L198.2644 38.7069
" />
<path d="M198.2644 24.2069
L183.7644 24.2069
" />
<path d="M198.2644 38.7069
L198.2644 24.2069
" />
<path d="M202.8144 24.2069
L202.8144 38.7069
" />
<path d="M202.8144 38.7069
L217.3144 38.7069
" />
<path d="M217.3144 24.2069
L202.8144 24.2069
" />
<path d="M217.3144 38.7069
L217.3144 24.2069
" />
<path d="M26.6019 90.8819
L26.6019 105.3819
" />
<path d="M26.6019 105.3819
L41.1019 105.3819
" />
<path d="M41.1019 90.8819
L26.6019 90.8819
" />
<path d="M41.1019 105.3819
L41.1019 90.8819
" />
<path d="M312.9694 71.8944
L312.9694 86.3944
" />
<path d="M312.9694 86.3944
L327.4694 86.3944
" />
<path d="M327.4694 71.8944
L312.9694 71.8944
" />
<path d="M327.4694 86.3944
L327.4694 71.8944
" />
<path d="M21.8394 71.8319
L21.8394 86.3319
" />
<path d="M21.8394 86.3319
L36.3394 86.3319
" />
<path d="M36.3394 71.8319
L21.8394 71.8319
" />
<path d="M36.3394 86.3319
L36.3394 71.8319
" />
<path d="M202.8144 43.2569
L202.8144 57.7569
" />
<path d="M202.8144 57.7569
L217.3144 57.7569
" />
<path d="M217.3144 43.2569
L202.8144 43.2569
" />
<path d="M217.3144 57.7569
L217.3144 43.2569
" />
<path d="M193.2894 71.8319
L193.2894 86.3319
" />
<path d="M193.2894 86.3319
L207.7894 86.3319
" />
<path d="M207.7894 71.8319
L193.2894 71.8319
" />
<path d="M207.7894 86.3319
L207.7894 71.8319
" />
<path d="M207.5769 109.9319
L207.5769 124.4319
" />
<path d="M207.5769 124.4319
L222.0769 124.4319
" />
<path d="M222.0769 109.9319
L207.5769 109.9319
" />
<path d="M222.0769 124.4319
L222.0769 109.9319
" />
<path d="M312.9694 90.9444
L312.9694 105.4444
" />
<path d="M312.9694 105.4444
L327.4694 105.4444
" />
<path d="M327.4694 90.9444
L312.9694 90.9444
" />
<path d="M327.4694 105.4444
L327.4694 90.9444
" />
<path d="M332.0194 129.0444
L332.0194 143.5444
" />
<path d="M332.0194 143.5444
L346.5194 143.5444
" />
<path d="M346.5194 129.0444
L332.0194 129.0444
" />
<path d="M346.5194 143.5444
L346.5194 129.0444
" />
<path d="M179.0019 128.9819
L179.0019 143.4819
" />
<path d="M179.0019 143.4819
L193.5019 143.4819
" />
<path d="M193.5019 128.9819
L179.0019 128.9819
" />
<path d="M193.5019 143.4819
L193.5019 128.9819
" />
<path d="M312.9694 43.3194
L312.9694 57.8194
" />
<path d="M312.9694 57.8194
L327.4694 57.8194
" />
<path d="M327.4694 43.3194
L312.9694 43.3194
" />
<path d="M327.4694 57.8194
L327.4694 43.3194
" />
<path d="M169.4769 109.9319
L169.4769 124.4319
" />
<path d="M169.4769 124.4319
L183.9769 124.4319
" />
<path d="M183.9769 109.9319
L169.4769 109.9319
" />
<path d="M183.9769 124.4319
L183.9769 109.9319
" />
<path d="M121.8519 128.9819
L121.8519 143.4819
" />
<path d="M121.8519 143.4819
L136.3519 143.4819
" />
<path d="M136.3519 128.9819
L121.8519 128.9819
" />
<path d="M136.3519 143.4819
L136.3519 128.9819
" />
<path d="M202.8144 90.8819
L202.8144 105.3819
" />
<path d="M202.8144 105.3819
L217.3144 105.3819
" />
<path d="M217.3144 90.8819
L202.8144 90.8819
" />
<path d="M217.3144 105.3819
L217.3144 90.8819
" />
<path d="M241.2319 148.0319
L241.2319 162.5319
" />
<path d="M241.2319 162.5319
L255.7319 162.5319
" />
<path d="M255.7319 148.0319
L241.2319 148.0319
" />
<path d="M255.7319 162.5319
L255.7319 148.0319
" />
<path d="M98.0394 43.2569
L98.0394 57.7569
" />
<path d="M98.0394 57.7569
L112.5394 57.7569
" />
<path d="M112.5394 43.2569
L98.0394 43.2569
" />
<path d="M112.5394 57.7569
L112.5394 43.2569
" />
<path d="M332.0869 90.9444
L332.0869 105.4444
" />
<path d="M332.0869 105.4444
L346.5869 105.4444
" />
<path d="M346.5869 90.9444
L332.0869 90.9444
" />
<path d="M346.5869 105.4444
L346.5869 90.9444
" />
<path d="M78.9894 43.2569
L78.9894 57.7569
" />
<path d="M78.9894 57.7569
L93.4894 57.7569
" />
<path d="M93.4894 43.2569
L78.9894 43.2569
" />
<path d="M93.4894 57.7569
L93.4894 43.2569
" />
<path d="M83.7519 128.9819
L83.7519 143.4819
" />
<path d="M83.7519 143.4819
L98.2519 143.4819
" />
<path d="M98.2519 128.9819
L83.7519 128.9819
" />
<path d="M98.2519 143.4819
L98.2519 128.9819
" />
<path d="M221.8644 90.8819
L221.8644 105.3819
" />
<path d="M221.8644 105.3819
L236.3644 105.3819
" />
<path d="M236.3644 90.8819
L221.8644 90.8819
" />
<path d="M236.3644 105.3819
L236.3644 90.8819
" />
<path d="M112.3269 109.9319
L112.3269 124.4319
" />
<path d="M112.3269 124.4319
L126.8269 124.4319
" />
<path d="M126.8269 109.9319
L112.3269 109.9319
" />
<path d="M126.8269 124.4319
L126.8269 109.9319
" />
<path d="M231.3894 71.8319
L231.3894 86.3319
" />
<path d="M231.3894 86.3319
L245.8894 86.3319
" />
<path d="M245.8894 71.8319
L231.3894 71.8319
" />
<path d="M245.8894 86.3319
L245.8894 71.8319
" />
<path d="M373.9494 43.4694
L373.9494 57.6694
" />
<path d="M373.9494 43.4694
L391.4494 43.4694
" />
<path d="M391.4494 57.6694
L373.9494 57.6694
" />
<path d="M391.4494 57.6694
L391.4494 43.4694
" />
<path d="M155.1894 71.8319
L155.1894 86.3319
" />
<path d="M155.1894 86.3319
L169.6894 86.3319
" />
<path d="M169.6894 71.8319
L155.1894 71.8319
" />
<path d="M169.6894 86.3319
L169.6894 71.8319
" />
<path d="M78.9894 24.2069
L78.9894 38.7069
" />
<path d="M78.9894 38.7069
L93.4894 38.7069
" />
<path d="M93.4894 24.2069
L78.9894 24.2069
" />
<path d="M93.4894 38.7069
L93.4894 24.2069
" />
<path d="M286.4756 148.0319
L286.4756 162.5319
" />
<path d="M286.4756 162.5319
L300.9756 162.5319
" />
<path d="M300.9756 148.0319
L286.4756 148.0319
" />
<path d="M300.9756 162.5319
L300.9756 148.0319
" />
<path d="M188.5269 109.9319
L188.5269 124.4319
" />
<path d="M188.5269 124.4319
L203.0269 124.4319
" />
<path d="M203.0269 109.9319
L188.5269 109.9319
" />
<path d="M203.0269 124.4319
L203.0269 109.9319
" />
<path d="M374.8819 109.9944
L374.8819 124.4944
" />
<path d="M374.8819 124.4944
L389.3819 124.4944
" />
<path d="M389.3819 109.9944
L374.8819 109.9944
" />
<path d="M389.3819 124.4944
L389.3819 109.9944
" />
<path d="M59.9394 71.8319
L59.9394 86.3319
" />
<path d="M59.9394 86.3319
L74.4394 86.3319
" />
<path d="M74.4394 71.8319
L59.9394 71.8319
" />
<path d="M74.4394 86.3319
L74.4394 71.8319
" />
<path style="fill:none; 
stroke:#000000; stroke-width:0.0500; stroke-opacity:1; 
stroke-linecap:round; stroke-linejoin:round;fill:none"
d="M 397.1656,31.8625
399.0656,31.8625
399.0656,35.2225
397.1656,35.2225
Z" /> 
<path d="M40.8894 71.8319
L40.8894 86.3319
" />
<path d="M40.8894 86.3319
L55.3894 86.3319
" />
<path d="M55.3894 71.8319
L40.8894 71.8319
" />
<path d="M55.3894 86.3319
L55.3894 71.8319
" />
<path style="fill:none; 
stroke:#000000; stroke-width:0.0500; stroke-opacity:1; 
stroke-linecap:round; stroke-linejoin:round;fill:none"
d="M 422.9456,62.9825
424.8456,62.9825
424.8456,66.3425
422.9456,66.3425
Z" /> 
<path d="M217.1019 128.9819
L217.1019 143.4819
" />
<path d="M217.1019 143.4819
L231.6019 143.4819
" />
<path d="M231.6019 128.9819
L217.1019 128.9819
" />
<path d="M231.6019 143.4819
L231.6019 128.9819
" />
<path d="M245.6769 109.9319
L245.6769 124.4319
" />
<path d="M245.6769 124.4319
L260.1769 124.4319
" />
<path d="M260.1769 109.9319
L245.6769 109.9319
" />
<path d="M260.1769 124.4319
L260.1769 109.9319
" />
<path d="M281.7131 71.6731
L281.7131 86.1731
" />
<path d="M281.7131 86.1731
L296.2131 86.1731
" />
<path d="M296.2131 71.6731
L281.7131 71.6731
" />
<path d="M296.2131 86.1731
L296.2131 71.6731
" />
<path d="M73.0362 148.0319
L73.0362 162.5319
" />
<path d="M73.0362 162.5319
L87.5362 162.5319
" />
<path d="M87.5362 148.0319
L73.0362 148.0319
" />
<path d="M87.5362 162.5319
L87.5362 148.0319
" />
<path d="M159.9519 128.9819
L159.9519 143.4819
" />
<path d="M159.9519 143.4819
L174.4519 143.4819
" />
<path d="M174.4519 128.9819
L159.9519 128.9819
" />
<path d="M174.4519 143.4819
L174.4519 128.9819
" />
<path d="M150.4269 109.9319
L150.4269 124.4319
" />
<path d="M150.4269 124.4319
L164.9269 124.4319
" />
<path d="M164.9269 109.9319
L150.4269 109.9319
" />
<path d="M164.9269 124.4319
L164.9269 109.9319
" />
<path d="M373.9494 24.4194
L373.9494 38.6194
" />
<path d="M373.9494 24.4194
L391.4494 24.4194
" />
<path d="M391.4494 38.6194
L373.9494 38.6194
" />
<path d="M391.4494 38.6194
L391.4494 24.4194
" />
<path d="M31.3644 109.9319
L31.3644 124.4319
" />
<path d="M31.3644 124.4319
L45.8644 124.4319
" />
<path d="M45.8644 109.9319
L31.3644 109.9319
" />
<path d="M45.8644 124.4319
L45.8644 109.9319
" />
<path d="M34.0631 128.9819
L34.0631 143.4819
" />
<path d="M34.0631 143.4819
L48.5631 143.4819
" />
<path d="M48.5631 128.9819
L34.0631 128.9819
" />
<path d="M48.5631 143.4819
L48.5631 128.9819
" />
<path d="M50.4144 90.8819
L50.4144 105.3819
" />
<path d="M50.4144 105.3819
L64.9144 105.3819
" />
<path d="M64.9144 90.8819
L50.4144 90.8819
" />
<path d="M64.9144 105.3819
L64.9144 90.8819
" />
<path d="M55.1769 109.9319
L55.1769 124.4319
" />
<path d="M55.1769 124.4319
L69.6769 124.4319
" />
<path d="M69.6769 109.9319
L55.1769 109.9319
" />
<path d="M69.6769 124.4319
L69.6769 109.9319
" />
<path d="M117.0894 71.8319
L117.0894 86.3319
" />
<path d="M117.0894 86.3319
L131.5894 86.3319
" />
<path d="M131.5894 71.8319
L117.0894 71.8319
" />
<path d="M131.5894 86.3319
L131.5894 71.8319
" />
<path d="M236.1519 128.9819
L236.1519 143.4819
" />
<path d="M236.1519 143.4819
L250.6519 143.4819
" />
<path d="M250.6519 128.9819
L236.1519 128.9819
" />
<path d="M250.6519 143.4819
L250.6519 128.9819
" />
<path d="M269.4894 43.2569
L269.4894 57.7569
" />
<path d="M269.4894 57.7569
L283.9894 57.7569
" />
<path d="M283.9894 43.2569
L269.4894 43.2569
" />
<path d="M283.9894 57.7569
L283.9894 43.2569
" />
<path d="M250.4394 24.2069
L250.4394 38.7069
" />
<path d="M250.4394 38.7069
L264.9394 38.7069
" />
<path d="M264.9394 24.2069
L250.4394 24.2069
" />
<path d="M264.9394 38.7069
L264.9394 24.2069
" />
<path style="fill:none; 
stroke:#000000; stroke-width:0.0500; stroke-opacity:1; 
stroke-linecap:round; stroke-linejoin:round;fill:none"
d="M 326.4025,24.1581
364.9025,24.1581
364.9025,36.6581
326.4025,36.6581
Z" /> 
<path d="M240.9144 90.8819
L240.9144 105.3819
" />
<path d="M240.9144 105.3819
L255.4144 105.3819
" />
<path d="M255.4144 90.8819
L240.9144 90.8819
" />
<path d="M255.4144 105.3819
L255.4144 90.8819
" />
<path d="M374.8819 90.9444
L374.8819 105.4444
" />
<path d="M374.8819 105.4444
L389.3819 105.4444
" />
<path d="M389.3819 90.9444
L374.8819 90.9444
" />
<path d="M389.3819 105.4444
L389.3819 90.9444
" />
<path d="M288.5394 43.2569
L288.5394 57.7569
" />
<path d="M288.5394 57.7569
L303.0394 57.7569
" />
<path d="M303.0394 43.2569
L288.5394 43.2569
" />
<path d="M303.0394 57.7569
L303.0394 43.2569
" />
</g> 
</svg>
